# xmcd
#
# Track frame offsets: 
#        150
#        17785
#        38060
#        65817
#        92341
#        115612
#        135337
#        156462
#        188036
#        206082
#        236590
#        261003
#        280798
#
# Disc length: 3993 seconds
#
# Revision: 0
# Processed by: cddbd v1.5.2PL0 Copyright (c) Steve Scherf et al.
# Submitted via: ExactAudioCopy v1.3
#
DISCID=ae0f970d
DTITLE=Bridget Kelly Band - Blues Warrior
DYEAR=2018
DGENRE=Blues Rock
TTITLE0=Lil' Honey Bee
TTITLE1=Cabrini-Green
TTITLE2=Stolen
TTITLE3=No Good Man Blues
TTITLE4=Alone
TTITLE5=Trouble in Texas
TTITLE6=Let Go
TTITLE7=Blues Inside of Me
TTITLE8=It's a Shame
TTITLE9=Snow Fall
TTITLE10=Nameless Nobody
TTITLE11=Sugar Sweet Baby
TTITLE12=Chemo
EXTD=
EXTT0=
EXTT1=
EXTT2=
EXTT3=
EXTT4=
EXTT5=
EXTT6=
EXTT7=
EXTT8=
EXTT9=
EXTT10=
EXTT11=
EXTT12=
PLAYORDER=
